<svg width="324" height="48" viewBox="0 0 324 48" fill="none" xmlns="http://www.w3.org/2000/svg">
<path fill-rule="evenodd" clip-rule="evenodd" d="M153.729 12.1895L158.846 5L162.799 7.81334C160.865 9.57064 159.29 11.7631 158.315 14.3787C156.994 17.921 156.931 21.6454 157.898 25.0346C157.947 24.2326 158.212 23.4354 158.711 22.735C158.763 22.6617 158.818 22.5901 158.875 22.5201C161.646 18.1389 166.116 14.9695 171.256 13.8335L173.243 15.2481C171.412 15.5777 169.626 16.1014 167.927 16.8531C170.507 16.4125 173.179 16.4691 175.734 17.0213L181.35 21.0189L180.664 21.9821C178.207 20.0893 175.204 18.8343 171.897 18.5191C168.062 18.1535 164.383 19.0989 161.33 20.9844C161.903 20.8513 162.5 20.8293 163.085 20.9269C166.97 21.0855 170.75 22.411 173.877 24.6995C174.95 25.4847 175.931 26.3611 176.83 27.3691L173.644 31.8444C173.461 31.2921 173.244 30.7298 172.996 30.1876C171.39 26.6739 168.745 23.9569 165.584 22.2606C165.772 22.459 165.94 22.6744 166.088 22.904C166.087 22.8999 166.086 22.8959 166.085 22.8919C166.084 22.8885 166.082 22.8851 166.082 22.8817C166.092 22.9 166.102 22.9186 166.113 22.9371C166.121 22.952 166.129 22.9668 166.137 22.9816C166.175 23.0427 166.211 23.1047 166.246 23.1676C166.25 23.1754 166.254 23.1833 166.258 23.1913C166.262 23.1989 166.266 23.2066 166.27 23.2141C169.722 29.4499 169.597 37.2819 165.355 43.5396L161.886 41.0701C165.166 37.1698 166.946 32.1298 166.85 26.9437C166.504 28.2602 166.012 29.4881 165.39 30.6904C163.767 33.8265 161.206 36.4889 157.93 38.2547L152.985 34.7345C153.601 34.6992 154.221 34.6241 154.844 34.5192C158.727 33.8656 162.057 31.9604 164.505 29.2463C164.514 29.2367 164.523 29.2269 164.531 29.2171C164.538 29.2085 164.546 29.1999 164.553 29.1914C164.526 29.2067 164.5 29.2215 164.472 29.2362C164.452 29.2472 164.432 29.2576 164.412 29.2687C158.08 32.683 150.132 32.5163 143.878 28.0644C143.55 27.8313 143.252 27.5896 142.945 27.3384L143.936 25.9465C147.225 28.3124 150.709 29.6031 153.989 29.5628C152.854 29.1704 151.767 28.6311 150.653 27.9382C148.898 26.8478 147.191 25.3629 145.618 23.584L146.817 21.8997C147.919 23.5778 149.287 25.1072 151.025 26.3448C153.987 28.4526 157.39 29.4768 160.766 29.492C160.416 29.3597 160.077 29.1814 159.758 28.9543C159.388 28.691 159.06 28.3724 158.787 28.0096C154.922 23.8024 152.985 18.0051 153.729 12.1895ZM165.094 27.2785C166.178 25.755 165.824 23.6575 164.3 22.5731C162.777 21.4886 160.679 21.8404 159.594 23.3639C159.466 23.5442 159.356 23.7365 159.266 23.9381C159.2 24.6858 159.52 25.4394 160.176 25.906C161.16 26.6065 162.525 26.4027 163.225 25.4186C163.663 24.8036 163.725 24.0196 163.478 23.3617C164.401 24.2754 164.539 25.7345 163.761 26.8264C162.897 28.04 161.215 28.3246 160.002 27.4606C159.661 27.2187 159.382 26.8992 159.189 26.5283C159.419 27.1277 159.822 27.6691 160.387 28.0708C161.91 29.1553 164.009 28.8019 165.094 27.2785Z" fill="#FAFAFA"/>
<path fill-rule="evenodd" clip-rule="evenodd" d="M4 24.8062C4 15.8745 11.2394 8.63517 20.1711 8.63517C29.1028 8.63517 36.3421 15.8745 36.3421 24.8062C36.3421 33.7379 29.1028 41.0243 20.1711 41.0243C11.2394 41.0243 4 33.7379 4 24.8062ZM6.44446 24.8062C6.44446 32.3747 12.6026 38.5329 20.1711 38.5329C27.6925 38.5329 33.8507 32.3747 33.8507 24.8062C33.8507 17.2848 27.6925 11.1266 20.1711 11.1266C12.6026 11.1266 6.44446 17.2848 6.44446 24.8062Z" fill="#FAFAFA"/>
<path d="M59.8411 27.6738H64.2599C68.6318 27.6738 72.2985 24.2421 72.3925 19.8703C72.4865 15.4045 68.8668 11.6908 64.401 11.6908H58.2428C57.5847 11.6908 57.1146 11.1737 57.1146 10.5625V9.43433H64.401C69.995 9.43433 74.5549 13.9472 74.6489 19.4942C74.7429 25.2293 69.948 29.9302 64.2129 29.9302H62.5676L73.0976 40.4132H70.3241C70.042 40.4132 69.76 40.3192 69.5249 40.0841L59.0419 29.6012C58.3368 28.896 58.8069 27.6738 59.8411 27.6738Z" fill="#FAFAFA"/>
<path d="M110.775 39.7081L122.904 9.38732H120.976C120.506 9.38732 120.083 9.66937 119.895 10.0925L109.13 37.1696L98.2709 10.0925C98.0829 9.66937 97.6598 9.38732 97.1897 9.38732H95.3093L107.438 39.7081C107.626 40.1312 108.049 40.4132 108.519 40.4132H109.741C110.211 40.4132 110.634 40.1312 110.775 39.7081Z" fill="#FAFAFA"/>
<path d="M220.603 40.4132H202.411C201.752 40.4132 201.282 39.9431 201.282 39.285V38.0158H219.475C220.086 38.0158 220.603 38.4858 220.603 39.144V40.4132Z" fill="#FAFAFA"/>
<path d="M202.411 23.255H219.052V24.5242C219.052 25.1823 218.535 25.6524 217.876 25.6524H201.282V24.3832C201.282 23.725 201.752 23.255 202.411 23.255Z" fill="#FAFAFA"/>
<path d="M219.475 11.7848H201.282V10.4685C201.282 9.85741 201.752 9.34031 202.411 9.34031H220.603V10.6566C220.603 11.2677 220.086 11.7848 219.475 11.7848Z" fill="#FAFAFA"/>
<path d="M245.735 14.4643L264.68 39.9901C264.868 40.2722 265.197 40.4132 265.573 40.4132H268.017V9.43433H266.513C265.902 9.43433 265.385 9.95143 265.385 10.5625V36.6055L245.547 9.85741C245.312 9.57535 244.983 9.38732 244.607 9.38732H243.15V29.9302H244.607C245.218 29.9302 245.735 29.4131 245.735 28.802V14.4643Z" fill="#FAFAFA"/>
<path d="M305.996 26.0285L293.868 9.2933H296.406C296.782 9.2933 297.111 9.48133 297.347 9.76339L307.924 24.3362C308.3 24.9003 308.535 25.5584 308.535 26.2635V39.285C308.535 39.9431 308.018 40.4132 307.406 40.4132H305.996V26.0285Z" fill="#FAFAFA"/>
<path d="M310.838 18.5071L317.184 9.76339C317.419 9.48133 317.748 9.2933 318.124 9.2933H320.71L312.248 20.9515L311.12 20.1054C310.603 19.7293 310.462 19.0241 310.838 18.5071Z" fill="#FAFAFA"/>
</svg>
