<svg width="189" height="189" viewBox="0 0 189 189" fill="none" xmlns="http://www.w3.org/2000/svg">
<g clip-path="url(#clip0_78_3)">
<path d="M79.8781 6.7052L56.5846 39.4285C53.1999 65.8978 62.016 92.2845 79.6089 111.434C80.8526 113.085 82.3424 114.535 84.0264 115.733C85.4783 116.767 87.0213 117.579 88.6167 118.181C73.2494 118.112 57.7591 113.45 44.2812 103.856C36.3685 98.2235 30.1416 91.262 25.1245 83.6241L19.6674 91.2905C26.8288 99.3873 34.5996 106.146 42.5839 111.109C47.6577 114.262 52.6031 116.717 57.7678 118.503C42.8409 118.687 26.9845 112.812 12.0134 102.044L7.50365 108.379C8.90128 109.522 10.2571 110.622 11.7475 111.683C40.2129 131.946 76.3885 132.705 105.208 117.164C105.3 117.114 105.394 117.067 105.485 117.016C105.61 116.949 105.731 116.882 105.854 116.812C105.78 116.895 105.709 116.98 105.636 117.062C94.4896 129.416 79.3327 138.087 61.6605 141.062C58.8253 141.539 56.0042 141.881 53.2009 142.042L75.7093 158.064C90.6159 150.027 102.276 137.909 109.66 123.636C112.491 118.163 114.732 112.574 116.307 106.582C116.745 130.187 108.641 153.126 93.7121 170.879L109.502 182.118C128.811 153.637 129.38 117.989 113.668 89.6068C113.629 89.537 113.595 89.465 113.556 89.3951C113.399 89.109 113.235 88.8268 113.064 88.5488C112.977 88.3971 112.897 88.2443 112.81 88.0939C112.818 88.128 112.83 88.1605 112.839 88.1956C112.167 87.1504 111.4 86.1699 110.546 85.2669C124.932 92.9875 136.973 105.354 144.28 121.347C145.407 123.814 146.395 126.374 147.23 128.888L161.73 108.518C157.641 103.93 153.173 99.9414 148.29 96.3678C134.056 85.9517 116.851 79.9185 99.1724 79.1968C96.5091 78.7523 93.7886 78.8527 91.1843 79.4581C105.079 70.8765 121.824 66.5736 139.276 68.2375C154.329 69.6721 167.999 75.3843 179.184 83.9996L182.304 79.6154L156.744 61.4204C145.115 58.907 132.953 58.6493 121.207 60.6547C128.94 57.2334 137.073 54.8499 145.405 53.3495L136.36 46.9109C112.965 52.0816 92.6228 66.5072 80.0079 86.4481C79.7492 86.7665 79.5002 87.0927 79.2611 87.4262C76.9917 90.6143 75.787 94.2425 75.5598 97.8928C71.1585 82.4671 71.4473 65.5151 77.4576 49.3925C81.8953 37.4874 89.064 27.5085 97.8673 19.5101L79.8781 6.7052ZM104.701 86.6891C111.635 91.6251 113.248 101.172 108.312 108.106C103.376 115.04 93.823 116.648 86.8888 111.712C84.3198 109.884 82.4846 107.42 81.4395 104.692C82.3178 106.379 83.5852 107.834 85.137 108.935C90.6611 112.867 98.3168 111.572 102.248 106.048C105.787 101.078 105.16 94.4375 100.961 90.2784C102.081 93.2732 101.801 96.8413 99.8086 99.6408C96.6204 104.12 90.4081 105.047 85.9288 101.859C82.9453 99.7352 81.4876 96.3053 81.7871 92.902C82.1998 91.9844 82.7007 91.1092 83.2827 90.2885C88.2187 83.3542 97.7673 81.7529 104.702 86.6889L104.701 86.6891Z" fill="white"/>
</g>
<defs>
<clipPath id="clip0_78_3">
<rect width="135.244" height="135.244" fill="white" transform="translate(78.4296) rotate(35.4444)"/>
</clipPath>
</defs>
</svg>
